<svg xmlns="http://www.w3.org/2000/svg" viewBox="0 0 24 24" width="24" height="24">
  <path d="M12 22c1.1 0 2-.9 2-2H10c0 1.1.9 2 2 2zm6.29-5.71c-.08-.2-.21-.37-.39-.49L17 15V8c0-4.41-3.59-8-8-8S1 3.59 1 8v7l-1.9 1.9c-.2.2-.31.48-.29.78.02.3.15.58.37.78.21.2.49.31.78.31H19c.29 0 .57-.11.78-.31.21-.2.34-.48.37-.78.02-.3-.09-.58-.29-.78zM3 8c0-3.31 2.69-6 6-6 2.84 0 5.3 1.85 5.88 4.43-.47.36-.88.78-1.24 1.27-.38.55-.65 1.16-.78 1.83-.12.57-.16 1.16-.16 1.77v5.23l-1.29-1.29c-.28-.28-.66-.42-1.05-.36l-3.95.69c-.38.06-.68.37-.68.75v2.7c0 .28.11.56.29.75L12 21.4l1.29-1.29c.28-.28.42-.66.36-1.05l-1.29-7.43c-.06-.38-.37-.68-.75-.68H4.7c-.38 0-.7.3-.75.68l-1.29 7.43c-.06.38.08.78.36 1.05L5.59 20l1.29-1.29c.28-.28.66-.42 1.05-.36l7.43 1.29c.38.06.68.37.68.75v2.7c0 .28-.11.56-.29.75L12 21.4l-1.29-1.29c-.28-.28-.42-.66-.36-1.05L10 12.5c.1-.44.31-.84.6-1.16.29-.32.64-.57 1.04-.73L12 10v-1.24l-2.6-.5L12 3.12 12 8h-.02L3 8z"/>
</svg>
