<svg xmlns="http://www.w3.org/2000/svg" viewBox="0 0 24 24" width="24" height="24">
  <path d="M19.14 12.936l1.29-1.29c.28-.28.42-.66.36-1.05l-1.29-7.43c-.06-.38-.37-.68-.75-.68h-2.7l-1.34-2.48c-.28-.51-.81-.82-1.36-.82H8.58c-.55 0-1.08.31-1.36.82L5.88 3.78H3.18c-.38 0-.7.3-.75.68l-1.29 7.43c-.06.38.08.78.36 1.05l1.29 1.29c.28.28.66.42 1.05.36l7.43-1.29c.38-.06.68-.37.68-.75v-2.7l2.48-1.34c.51-.28.82-.81.82-1.36v-2.7c0-.55-.31-1.08-.82-1.36l-2.48-1.34v-2.7c0-.55-.31-1.08-.82-1.36l-2.48-1.34v2.7c0 .55-.31 1.08-.82 1.36L12 3.18l-7.43 1.29c-.38.06-.7.37-.75.75l-1.29 7.43c-.06.38.08.78.36 1.05l1.29 1.29c.28.28.66.42 1.05.36l7.43-1.29c.38-.06.68-.37.68-.75v-2.7l2.48-1.34c.51-.28.82-.81.82-1.36v-2.7c0-.55-.31-1.08-.82-1.36L12 3.18l2.48 1.34c.51.28.82.81.82 1.36v2.7c0 .55-.31 1.08-.82 1.36l-2.48 1.34v2.7c0 .55-.31 1.08-.82 1.36l-2.48 1.34v2.7c0 .55-.31 1.08-.82 1.36l-2.48 1.34v2.7c0 .55-.31 1.08-.82 1.36l-2.48 1.34v2.7c0 .55-.31 1.08-.82 1.36L12 22.62c-.55 0-1.08-.31-1.36-.82l-1.34-2.48v-2.7c0-.55.31-1.08.82-1.36L12 12.936z"/>
</svg>
